<svg xmlns="http://www.w3.org/2000/svg" width="512" height="512" viewBox="0 0 512 512">
  <!-- Background -->
  <rect width="512" height="512" fill="#2563eb" rx="100"/>

  <!-- Q de Quetzal -->
  <g fill="#ffffff">
    <!-- Círculo exterior de la Q -->
    <path d="M256 96c-88.4 0-160 71.6-160 160s71.6 160 160 160c40.8 0 78-15.3 106.2-40.5l-35.4-35.4c-19.9 16.8-45.5 26.9-73.8 26.9-61.9 0-112-50.1-112-112s50.1-112 112-112 112 50.1 112 112c0 28.3-10.5 54.2-27.8 74l35.4 35.4c25.2-28.2 40.4-65.4 40.4-105.4 0-88.4-71.6-160-160-160z"/>

    <!-- Cola diagonal de la Q (característica del Quetzal) -->
    <path d="M320 320l64 64c8.8 8.8 23.2 8.8 32 0s8.8-23.2 0-32l-64-64-32 32z"/>

    <!-- Detalles sutiles horizontales (como ojos discretos) -->
    <ellipse cx="220" cy="240" rx="16" ry="8" opacity="0.4"/>
    <ellipse cx="292" cy="240" rx="16" ry="8" opacity="0.4"/>
  </g>

  <!-- Accent decoration (colores del Quetzal) -->
  <circle cx="128" cy="128" r="24" fill="#10b981" opacity="0.5"/>
  <circle cx="384" cy="128" r="20" fill="#ef4444" opacity="0.4"/>
  <circle cx="384" cy="384" r="28" fill="#10b981" opacity="0.3"/>
</svg>
